PathFileType	4	(X/Y/Z)	path1_20_0-911.trc
DataRate	CameraRate	NumFrames	NumMarkers	Units	OrigDataRate	OrigDataStartFrame	OrigNumFrames
30	30	6	22	m	30	341	911
Frame#	Time	Hip			RHip			RKnee			RAnkle			RBigToe			RSmallToe			RHeel			LHip			LKnee			LAnkle			LBigToe			LSmallToe			LHeel			Neck			Head			Nose			RShoulder			RElbow			RWrist			LShoulder			LElbow			LWrist		
		X1	Y1	Z1	X2	Y2	Z2	X3	Y3	Z3	X4	Y4	Z4	X5	Y5	Z5	X6	Y6	Z6	X7	Y7	Z7	X8	Y8	Z8	X9	Y9	Z9	X10	Y10	Z10	X11	Y11	Z11	X12	Y12	Z12	X13	Y13	Z13	X14	Y14	Z14	X15	Y15	Z15	X16	Y16	Z16	X17	Y17	Z17	X18	Y18	Z18	X19	Y19	Z19	X20	Y20	Z20	X21	Y21	Z21	X22	Y22	Z22
342	11.4	2.505248408363915	0.8325207484795698	0.6074162958295014	2.5110143093058914	0.801545127532764	0.5318176467252659	2.482239647549862	0.4655978100272786	0.5201799978636206	2.544774958064974	0.10197343407124226	0.5623195297615053	2.349570995008213	0.03071062845717387	0.5421964123138644	2.3824506044060785	0.027814068677049057	0.4715741143136288	2.5879779665627685	0.037541741628122266	0.5628291973129697	2.496794202666406	0.8025030610671245	0.6944206983435735	2.4998751620193733	0.4367919573950564	0.6642242115299468	2.542284317160862	0.0997549444835842	0.6693741727392742	2.376195461428225	0.016223206279762124	0.6827516282087585	2.402241307795755	0.021371868898603864	0.7350442576429614	2.588940578734091	0.037359340412361525	0.6765358814578887	2.4602280265058982	1.4631376405465968	0.6280853188879647	2.39381837826337	1.6937662839457341	0.6023506940954283	2.3247312574553134	1.6042809083555913	0.6019854828734514	2.5198656390041045	1.369648014226624	0.45662728690208676	2.5176419523960663	1.076365093747101	0.3959713862140941	2.4887103304443317	0.8431879793606123	0.39530801765483775	2.4693243340478763	1.348317583622282	0.7891108685028927	2.4946275895988896	1.061827833405434	0.8167796972112948	2.4847455612640568	0.8283021144709615	0.8209210128598697
343	11.433333333333334	2.5043260699769796	0.8323665756869715	0.6076128604247678	2.5101152803227875	0.8016305334155643	0.5318698135704432	2.4820477065307562	0.46543820127707797	0.5199254168780972	2.5447379576272118	0.1024434301937072	0.561282139340362	2.349141702445831	0.029687490437026967	0.5430827917907993	2.3824758029155135	0.02760658233344032	0.4717323501290491	2.5885830384127644	0.037343253494305714	0.5626163646517699	2.4958581945943346	0.8025073060779924	0.6946733391898066	2.499121239992299	0.43655919071208016	0.6640622539269401	2.5406332713036184	0.10192244551612188	0.6700223512245899	2.376716463729859	0.01437813424260166	0.6818882453305533	2.4015972499907066	0.022574267823611792	0.7348141836547398	2.5887578225834678	0.03757553578089842	0.6761544413352945	2.456800891727714	1.461406939459886	0.6272205565007948	2.3912287047220393	1.6931003640620481	0.602815777916905	2.3222988095679513	1.6040098707699633	0.6022122583295875	2.5180004548023116	1.3696386142081571	0.45696534407007927	2.516494427010718	1.076531275896634	0.39611413458550604	2.4879966200502763	0.8435447629396912	0.3950082206275781	2.4691173694586985	1.3483454240491102	0.7882057921610484	2.493633787930576	1.0615421634370457	0.8169742412622498	2.4837524734896896	0.8277986407766796	0.8211444240047207
344	11.466666666666669	2.503431062883763	0.8320888836809579	0.6077990462653022	2.5090199802911246	0.8017151717613924	0.5316276528330874	2.4819189194368474	0.46531272790413514	0.5196894624136603	2.545044444982382	0.1026636648047596	0.5604561533422463	2.3482489279114604	0.027841824715328416	0.5430491400047361	2.3827985803728584	0.027217564889811093	0.47196019067704836	2.589313686540499	0.03726950802839063	0.5623660552157834	2.4948013179110307	0.802294562094759	0.6947734087402736	2.498116250567186	0.4362268632623265	0.6639152409399818	2.53884336233522	0.10443278136544087	0.6707624064950091	2.3774164726591094	0.01322833047644537	0.6813167635718145	2.4014938278902007	0.023971971803620186	0.7350393353673148	2.5889196481790093	0.037637188752852574	0.6762056279362959	2.45424513769258	1.4605405139046754	0.6267668722182866	2.391282621025145	1.6954358833058014	0.5992864122766577	2.3198841700551966	1.6035720108739557	0.6023191411937506	2.5160813488266576	1.369418033427802	0.45694931756527646	2.5151103177591745	1.076566351640315	0.396292228580057	2.4872068675993324	0.8438472687801619	0.39468752957491143	2.469713987325325	1.3484486914460392	0.7859628943562815	2.492784077356881	1.0613766189289588	0.8172114029303834	2.4829326854828158	0.8272941675586918	0.8214567538436954
345	11.5	2.502552651801639	0.8316668280114173	0.6080168082437055	2.507790267206176	0.8017921634827798	0.5312779400034121	2.4819735432323724	0.46528235213993707	0.5194581149711114	2.545662311343888	0.10254418479645885	0.5599878024029743	2.3469549026295935	0.025442820421416663	0.5420743599985449	2.3833186117917444	0.02673154398306144	0.4721723958891219	2.5901225504704146	0.03720485115131808	0.5622099612272441	2.493704681482558	0.8018488852019173	0.6948982796995048	2.4968423871762844	0.43585760608880075	0.6639729566631336	2.5368825716965526	0.10720432533843736	0.6715739310011924	2.378302723184794	0.01290114541038644	0.6810052716670895	2.401590110015723	0.025695970437181987	0.7356486958231203	2.5886922256936593	0.037747660749813755	0.676210914989123	2.4526812345018927	1.460680578980916	0.6269186752423651	2.393109852293795	1.6998450113655557	0.5932317907640668	2.317526910275281	1.6029448496503977	0.6024139374272839	2.5139930679234674	1.369028176791307	0.45667937651567053	2.513356182188338	1.076475457208351	0.39640044830648163	2.4861787324225473	0.8439534596249045	0.3944706457369301	2.471103759917685	1.3486818366815427	0.7823216105447457	2.491917881047374	1.061345722848345	0.8176024670462458	2.482306632065718	0.8267666761254212	0.8219760452953794
346	11.533333333333331	2.501566510760577	0.8312065922333718	0.6083649048006222	2.5065026430974964	0.8018874886209623	0.5311020251631512	2.482207730780778	0.46533959110709666	0.5191776596065663	2.5464482881982393	0.1020577448344165	0.5597952748576276	2.345588311355116	0.023104594289750043	0.5404079593144671	2.383876623367178	0.02623975107176473	0.47229234871120007	2.590904856618586	0.03697375080959815	0.562137318183166	2.4926393024493207	0.8012708954274145	0.6953052718138013	2.4953254759142913	0.435558006751252	0.6643988535063278	2.5349736002183674	0.10982264299729705	0.6724232032589391	2.379147361654285	0.013369735260060205	0.6809977063341355	2.4011414948996492	0.02779274776602345	0.7363009803161543	2.5876556547129272	0.038032140239507246	0.6759298770785291	2.4516730009792935	1.4614372832946385	0.6275974778870024	2.394979628711145	1.7040781890268697	0.5877721279480911	2.3152291741249282	1.6022066729418667	0.6026625063394966	2.51161508012001	1.3685439321441584	0.4563160464890041	2.51119396780236	1.0762285529276954	0.39658185041986677	2.4848328223768332	0.8437622567934263	0.3944321047768781	2.4729644642751887	1.3490528713144905	0.777693819807203	2.49082064715596	1.0614235960183394	0.8182505293553904	2.4817769265821075	0.8261970882409209	0.8228416933311901
347	11.566666666666666	2.5002811941904297	0.8308898216892933	0.6089787273705988	2.5051492000139213	0.8020497165447226	0.5314367313247207	2.482413586095359	0.4654178449438056	0.5188485035342287	2.5473181442795996	0.10121908720820118	0.5598050151166858	2.3446798871340793	0.021568813901063397	0.5384119174088512	2.384320104846781	0.025827325059876425	0.47226517831740833	2.5916856651829674	0.03644206945277388	0.5621429020395421	2.4916411863380725	0.8007474759451769	0.6962887367478164	2.4936207569238933	0.43538481587035555	0.6654994476792078	2.5334538487783185	0.11182750594366773	0.673372046915082	2.37969715493621	0.014537260522491328	0.6813480085891431	2.399480172808332	0.030223457696776066	0.7366287653513621	2.5856066102093087	0.03857875331147926	0.6752312124863538	2.450383278982846	1.4620500223434512	0.6285562489391939	2.3948318740008316	1.705500817514555	0.5863213226784448	2.312916236886897	1.6015285764312965	0.6031943465639967	2.508906107437681	1.3680571260981849	0.45607529780158385	2.5087268772450395	1.0758176794336458	0.39722213813610074	2.4831194779322474	0.8432236737007767	0.3946525483306693	2.4744111939599294	1.3494133349779913	0.7732814388879445	2.489218572599086	1.0615372233796996	0.8192170466340379	2.481101159042538	0.8255910593953619	0.8242160053081298
